<svg height="16" viewBox="0 -960 640 640" width="16" fill="#e8eaed" xmlns="http://www.w3.org/2000/svg"><path d="M320-640q-66 0-113-47t-47-113q0-66 47-113t113-47q66 0 113 47t47 113q0 66-47 113t-113 47zM0-320v-112q0-34 17.5-62.5T64-538q62-31 126-46.5T320-600q66 0 130 15.5T576-538q29 15 46.5 43.5T640-432v112zm80-80h480v-32q0-11-5.5-20T540-466q-54-27-109-40.5T320-520q-56 0-111 13.5T100-466q-9 5-14.5 14T80-432zm240-320q33 0 56.5-23.5T400-800q0-33-23.5-56.5T320-880q-33 0-56.5 23.5T240-800q0 33 23.5 56.5T320-720zm0-80zm0 400z"/></svg>